<?xml version="1.0" standalone="no"?>
<!DOCTYPE svg PUBLIC "-//W3C//DTD SVG 20010904//EN"
 "http://www.w3.org/TR/2001/REC-SVG-20010904/DTD/svg10.dtd">
<svg version="1.0" xmlns="http://www.w3.org/2000/svg"
 width="292.000000pt" height="292.000000pt" viewBox="0 0 292.000000 292.000000"
 preserveAspectRatio="xMidYMid meet">
<metadata>
Created by potrace 1.14, written by Peter Selinger 2001-2017
</metadata>
<g transform="translate(0.000000,292.000000) scale(0.100000,-0.100000)"
fill="#000000" stroke="none">
<path d="M971 2855 c-16 -14 -38 -44 -47 -65 -10 -22 -23 -40 -29 -40 -5 0
-34 9 -63 19 -55 20 -84 20 -108 0 -19 -16 -18 -63 2 -80 18 -15 127 -18 156
-5 14 6 20 1 30 -21 7 -15 15 -30 19 -33 3 -3 10 -16 14 -29 8 -26 14 -25 -82
-6 -27 5 -37 1 -58 -19 -21 -22 -23 -29 -14 -49 6 -14 22 -30 36 -36 34 -16
105 -14 130 4 19 13 22 13 36 -9 9 -12 22 -39 30 -58 15 -35 15 -35 -9 -35
-13 0 -27 3 -30 8 -7 12 -48 11 -78 -2 -34 -16 -39 -45 -12 -75 17 -21 32 -26
76 -28 33 -2 63 2 74 10 23 16 46 8 46 -16 0 -10 6 -23 14 -30 8 -6 12 -18 9
-26 -4 -12 -17 -14 -59 -8 -62 7 -84 -4 -84 -43 0 -28 21 -53 44 -53 27 0 28
-20 1 -30 -43 -16 -65 -13 -65 11 0 79 -220 332 -257 295 -3 -3 -6 -24 -7 -47
-1 -26 -8 -45 -16 -47 -9 -3 -11 1 -7 11 7 19 -16 40 -40 35 -11 -2 -25 7 -36
25 -17 28 -19 28 -42 13 -22 -14 -25 -14 -39 0 -18 18 -56 10 -56 -12 0 -18
-15 -18 -34 1 -13 13 -16 13 -30 -1 -9 -8 -16 -24 -16 -34 0 -17 -3 -18 -25
-8 -30 13 -34 10 -37 -26 -2 -18 -9 -28 -24 -32 -21 -6 -38 -37 -26 -49 10 -9
11 -36 2 -30 -5 3 -14 -4 -20 -15 -8 -16 -8 -24 3 -35 8 -8 18 -11 23 -7 5 4
2 -2 -7 -13 -29 -36 -29 -52 -3 -70 21 -13 23 -19 13 -31 -10 -12 -8 -19 11
-36 17 -16 24 -18 30 -8 6 10 11 3 17 -21 9 -33 27 -43 49 -27 7 5 16 -2 24
-22 15 -35 21 -37 45 -10 22 24 35 12 35 -32 0 -61 123 -120 201 -97 44 14 58
7 39 -16 -10 -12 -14 -61 -15 -182 -1 -173 -4 -185 -43 -167 -34 15 -63 14
-95 -1 -66 -31 -85 -118 -60 -273 23 -146 79 -239 153 -257 47 -11 50 -16 51
-78 1 -108 11 -168 41 -252 73 -204 269 -378 488 -430 193 -46 415 -6 575 105
130 90 253 265 272 385 2 17 8 46 12 65 4 19 9 67 10 105 2 59 5 73 24 87 12
10 29 18 38 18 8 0 29 12 45 28 32 28 81 102 69 102 -4 0 -3 6 2 13 6 6 14 30
18 52 5 22 10 47 12 55 11 43 6 187 -8 214 -29 59 -101 88 -152 61 -13 -7 -30
-10 -36 -6 -6 4 -12 67 -14 171 -2 91 -8 176 -12 189 -8 22 -6 23 21 17 85
-20 146 -9 196 36 25 22 32 36 30 57 -4 34 13 48 34 30 28 -23 45 -19 51 12 4
19 9 27 17 21 6 -5 17 -7 24 -6 6 1 16 2 21 3 5 0 8 12 5 26 -4 21 0 25 19 25
33 0 47 18 37 45 -7 18 -4 24 16 33 21 10 23 14 12 37 -6 14 -16 25 -21 25 -6
0 -1 9 11 20 27 26 27 28 0 50 -18 14 -20 20 -10 32 10 12 8 19 -7 37 -11 12
-23 21 -27 19 -4 -2 -9 8 -11 22 -5 31 -22 41 -46 28 -11 -5 -17 -6 -14 -1 2
4 1 19 -4 32 -9 23 -18 24 -61 6 -13 -5 -18 -2 -18 8 0 24 -19 31 -47 16 -19
-10 -28 -10 -43 -1 -16 10 -23 8 -40 -10 -11 -12 -20 -24 -20 -28 0 -3 -15 -5
-34 -4 -30 2 -33 0 -30 -25 2 -24 2 -25 -11 -7 -8 10 -12 23 -9 28 8 13 -4 58
-15 58 -5 0 -16 -7 -25 -15 -8 -8 -19 -15 -24 -15 -5 0 -36 -27 -69 -59 -60
-60 -115 -150 -128 -208 -7 -35 -20 -37 -71 -10 l-27 14 36 12 c20 7 37 16 38
19 0 4 2 15 4 24 8 41 -47 65 -107 47 -33 -9 -45 4 -30 34 6 12 13 30 16 41 5
15 12 17 39 11 54 -14 137 -9 154 8 21 21 20 65 -3 82 -17 12 -32 12 -106 1
-34 -5 -34 1 -5 59 18 37 26 44 42 39 11 -4 45 -9 75 -11 45 -4 60 -1 82 16
28 23 30 53 5 78 -15 16 -67 23 -82 13 -39 -27 -81 -7 -50 24 8 8 15 21 15 28
1 23 25 47 39 39 7 -5 41 -9 76 -10 72 -2 95 12 95 59 0 22 -7 33 -27 44 -25
12 -35 11 -95 -9 l-67 -23 -20 42 c-26 52 -40 70 -69 85 -51 27 -98 -27 -66
-78 19 -29 64 -70 78 -71 21 0 45 -32 36 -49 -4 -9 -16 -33 -25 -53 -9 -21
-19 -38 -23 -38 -4 0 -18 19 -32 41 -43 70 -104 88 -130 39 -19 -36 39 -111
103 -133 22 -8 34 -37 18 -46 -6 -4 -13 -21 -14 -38 -1 -17 -5 -29 -9 -26 -5
2 -8 -3 -8 -11 0 -30 -19 -25 -41 11 -36 61 -60 83 -91 83 -21 0 -32 -7 -40
-26 -17 -38 14 -90 74 -123 52 -28 56 -37 33 -81 -9 -17 -15 -32 -15 -35 1
-29 -2 -33 -20 -28 -11 3 -20 12 -20 20 0 22 -42 73 -73 89 -20 11 -32 12 -47
4 -21 -11 -22 -15 -24 -64 -1 -33 -15 -39 -86 -38 -77 1 -85 5 -85 44 0 40
-19 68 -46 68 -24 0 -87 -63 -95 -95 -9 -37 -30 -30 -50 18 -27 63 -24 74 25
100 27 15 53 40 68 65 l25 41 -26 26 c-37 37 -72 18 -126 -70 -18 -30 -26 -35
-28 -22 -2 9 -7 17 -11 17 -4 0 -8 6 -8 13 -1 19 -7 41 -14 47 -4 3 -9 15 -13
27 -6 19 -1 25 31 38 45 19 70 41 90 78 13 25 13 31 -2 53 -28 44 -72 29 -119
-41 -15 -21 -33 -40 -41 -41 -8 -1 -13 1 -11 5 2 3 -4 24 -14 46 -27 57 -25
73 13 88 18 8 47 31 65 51 26 29 31 42 26 64 -13 49 -47 55 -93 17z m136 -738
c-4 -12 -37 -19 -37 -8 0 12 9 18 25 18 9 0 14 -5 12 -10z m643 -3 c0 -10 -11
-11 -38 -5 -2 1 -1 5 2 9 8 13 36 10 36 -4z m-956 -91 c26 -29 56 -55 66 -58
11 -4 25 -15 30 -26 9 -16 5 -21 -29 -35 -35 -14 -41 -21 -47 -52 -9 -58 -12
-62 -39 -62 -19 0 -28 7 -35 28 -10 27 -22 55 -44 102 -6 14 -11 34 -11 45 0
11 -4 23 -10 27 -5 4 4 12 23 19 33 11 40 27 21 46 -15 15 -2 36 16 26 7 -5
34 -31 59 -60z m1302 32 c-4 -19 2 -29 20 -41 28 -19 33 -67 8 -102 -8 -12
-12 -22 -9 -22 3 0 0 -12 -8 -27 -8 -16 -19 -40 -25 -55 -7 -18 -17 -25 -29
-23 -10 2 -24 4 -30 4 -7 1 -13 12 -13 25 0 43 -19 77 -50 89 -44 17 -43 33 3
61 23 13 59 45 80 70 43 52 60 58 53 21z m-1436 -133 c15 -33 14 -37 -5 -36
-8 1 -22 2 -30 3 -15 1 -22 51 -9 64 11 11 31 -4 44 -31z m1552 -1 c2 -20 -3
-26 -35 -37 -37 -13 -38 -13 -31 9 8 29 46 69 55 60 4 -5 9 -19 11 -32z"/>
</g>
</svg>
